<?xml version="1.0" ?><svg height="612" id="svg1583" version="1.0" width="612" xmlns="http://www.w3.org/2000/svg" xmlns:cc="http://creativecommons.org/ns#" xmlns:dc="http://purl.org/dc/elements/1.1/" xmlns:inkscape="http://www.inkscape.org/namespaces/inkscape" xmlns:rdf="http://www.w3.org/1999/02/22-rdf-syntax-ns#" xmlns:sodipodi="http://sodipodi.sourceforge.net/DTD/sodipodi-0.dtd" xmlns:svg="http://www.w3.org/2000/svg"><defs id="defs1585"><marker id="ArrowEnd" markerHeight="3" markerUnits="strokeWidth" markerWidth="4" orient="auto" refX="0" refY="5" viewBox="0 0 10 10"><path d="M 0,0 L 10,5 L 0,10 L 0,0 z" id="path1588"/></marker><marker id="ArrowStart" markerHeight="3" markerUnits="strokeWidth" markerWidth="4" orient="auto" refX="10" refY="5" viewBox="0 0 10 10"><path d="M 10,0 L 0,5 L 10,10 L 10,0 z" id="path1591"/></marker></defs><g id="g6505" transform="translate(-152.543,-157.58244)"><g id="g1593"><path d="M 234.893,174.921 C 193.558,174.921 170.322,196.292 170.322,239.957 L 170.322,690.079 C 170.322,730.922 191.213,752.307 232.514,752.307 L 684.538,752.307 C 725.841,752.307 746.764,731.987 746.764,690.079 L 746.764,239.957 C 746.764,197.357 725.841,174.921 683.241,174.921 C 683.241,174.921 234.75,174.779 234.893,174.921 z" id="path1595" style="fill:#000000;stroke:#ffffff;stroke-width:3.40799999"/></g><g id="g1597"><g id="g1599"><path d="M 461.042,656.297 C 353.209,656.297 265.789,568.877 265.789,461.044 C 265.789,353.206 353.209,265.789 461.042,265.789 C 568.88,265.789 656.297,353.206 656.297,461.044 C 656.297,568.877 568.88,656.297 461.042,656.297 z" id="path1601" style="fill:none;stroke:#ffffff;stroke-width:50.71500015"/><path id="path1603" style="fill:none;stroke:#ffffff;stroke-width:50.71500015"/></g><path d="M 359.107,495.303 L 406.542,495.303 C 409.542,509.044 413.492,525.665 435.097,531.831 L 435.042,477.844 C 405.453,473.574 362.769,460.544 362.769,412.759 C 362.769,359.044 421.947,342.294 435.097,342.294 L 435.097,309.816 L 479.713,309.816 L 479.713,342.294 C 509.792,344.044 553.45,369.294 553.45,417.294 L 506.484,417.294 C 505.292,403.044 494.292,389.044 480.183,388.044 L 480.183,437.544 C 516.042,441.236 558.146,454.981 558.146,503.368 C 558.146,545.615 515.877,576.426 480.183,578.323 L 480.183,610.883 L 435.097,610.883 L 435.097,577.848 C 409.266,574.053 362.042,549.044 359.107,495.303 z" id="path1605" style="fill:#ffffff;stroke:none"/><g id="g1607"><path d="M 435.33,388.534 L 435.33,429.544 C 403.542,429.044 402.924,394.227 435.33,388.534 z" id="path1609" style="fill:#000000;stroke:none"/><g id="g1611"><path d="M 480.705,485.544 C 520.042,486.544 524.417,525.794 480.662,532.07" id="path1613" style="fill:#000000;stroke:none"/><path d="M 480.662,532.07 L 480.705,485.544" id="path1615" style="fill:#000000;stroke:none"/></g></g></g></g></svg>